<?xml version="1.0" standalone="no"?>
<!DOCTYPE svg PUBLIC "-//W3C//DTD SVG 20010904//EN"
 "http://www.w3.org/TR/2001/REC-SVG-20010904/DTD/svg10.dtd">
<svg version="1.0" xmlns="http://www.w3.org/2000/svg"
 width="591.000000pt" height="381.000000pt" viewBox="0 0 591.000000 381.000000"
 preserveAspectRatio="xMidYMid meet">

<g transform="translate(0.000000,381.000000) scale(0.100000,-0.100000)"
fill="#000000" stroke="none">
<path d="M4644 2373 l-52 -4 -5 -45 c-3 -27 -13 -55 -26 -68 -19 -20 -21 -34
-21 -144 0 -67 -4 -122 -9 -122 -4 0 -21 18 -36 40 -39 57 -90 99 -153 128
-50 23 -63 24 -148 19 -76 -4 -105 -11 -150 -34 -152 -76 -232 -220 -213 -381
16 -136 91 -218 239 -260 l35 -10 -41 -1 c-150 -4 -275 116 -292 281 l-7 73
-24 -74 c-28 -89 -25 -154 12 -234 32 -70 75 -117 134 -147 42 -22 61 -25 148
-25 125 1 191 17 263 65 53 36 138 129 205 225 l29 40 -5 -147 -5 -148 37 1
c20 1 62 4 94 8 54 6 59 9 102 61 42 51 45 59 45 112 0 32 4 58 8 58 4 0 34
-40 65 -89 32 -49 63 -93 70 -99 7 -6 54 -7 115 -4 94 4 104 7 112 26 4 11 22
34 39 50 30 29 41 56 22 56 -5 0 -39 44 -75 98 -37 53 -94 134 -127 180 -32
45 -53 82 -46 82 12 0 110 103 194 203 40 49 41 52 25 68 -16 14 -31 15 -131
6 l-112 -10 -71 -78 c-39 -44 -74 -79 -77 -79 -3 0 -5 68 -3 152 4 193 13 183
-164 171z m-465 -517 c45 -24 84 -103 63 -132 -34 -49 -141 -61 -188 -21 -23
20 -27 31 -28 81 0 46 4 61 19 72 25 18 98 18 134 0z"/>
<path d="M1163 2327 l-73 -10 0 -96 c-1 -53 -5 -237 -10 -409 -8 -307 -9 -313
-33 -355 -61 -104 -218 -119 -261 -24 -40 89 -32 140 33 207 40 42 53 50 99
56 l52 7 0 41 c0 22 3 65 6 94 l7 52 -35 0 c-43 0 -130 -25 -171 -50 -58 -36
-127 -112 -159 -179 -31 -61 -33 -73 -33 -166 0 -84 4 -107 23 -145 31 -63 83
-114 149 -146 134 -66 323 -9 416 125 76 109 84 146 93 406 4 118 11 215 15
215 5 0 25 -9 46 -19 42 -22 165 -46 188 -37 12 4 15 25 15 101 l0 95 -40 0
c-94 0 -179 80 -202 193 -14 64 -4 61 -125 44z"/>
<path d="M3809 2296 c-2 -2 -126 -14 -275 -27 l-272 -23 -6 -47 c-4 -27 -14
-54 -26 -64 -14 -13 -20 -31 -20 -63 0 -37 -2 -42 -14 -33 -11 9 -40 9 -124 0
l-110 -12 -67 -74 c-36 -40 -71 -73 -76 -73 -6 0 -7 56 -4 148 6 146 6 147
-17 163 -19 13 -36 14 -103 7 -44 -4 -86 -10 -92 -13 -8 -2 -13 -22 -13 -48 0
-71 -17 -75 -71 -17 -38 41 -52 50 -80 50 -19 0 -45 -7 -58 -16 -28 -20 -54
-79 -46 -105 4 -12 -1 -29 -14 -45 -11 -15 -18 -30 -16 -34 3 -5 1 -11 -5 -15
-5 -3 -10 -15 -10 -25 0 -14 5 -18 18 -14 13 5 14 4 3 -4 -12 -9 -12 -14 2
-36 23 -35 21 -55 -8 -85 l-24 -26 -1 -235 c-1 -129 -1 -255 -1 -279 l1 -44
86 6 c85 6 86 6 124 49 l39 43 1 -40 0 -41 73 7 c39 4 81 8 92 8 12 1 40 24
68 57 44 52 47 60 47 113 l1 56 24 -30 c14 -16 44 -60 67 -97 l43 -68 50 1
c27 1 75 4 106 8 54 6 59 9 99 59 l42 54 -20 21 c-12 12 -70 93 -130 180
l-110 158 72 77 c159 171 157 169 154 143 -3 -24 -2 -24 67 -22 39 2 81 4 94
5 l24 1 -2 -319 c-1 -176 -4 -324 -7 -328 -6 -10 41 -10 124 -2 60 7 62 8 108
67 l48 60 4 273 5 274 26 0 c18 0 39 15 74 53 40 43 54 69 78 142 l29 90 -23
17 c-21 17 -39 22 -48 14z m-1259 -351 c0 -42 -11 -58 -25 -35 -3 6 -15 10
-26 10 -10 0 -19 5 -19 10 0 6 7 10 15 10 8 0 15 6 15 13 0 14 20 37 32 37 4
0 8 -20 8 -45z"/>
<path d="M996 2265 c-16 -12 -19 -33 -24 -175 -3 -106 -9 -160 -16 -161 -6 0
2 -5 18 -10 17 -4 31 -7 32 -6 2 1 4 84 6 185 2 100 3 182 3 182 0 0 -8 -7
-19 -15z"/>
<path d="M2060 2139 c-107 -10 -229 -22 -270 -26 l-75 -8 -5 -53 c-4 -36 -11
-57 -23 -63 -14 -8 -17 -25 -17 -96 l0 -86 91 6 91 7 -5 -326 -5 -326 57 6
c31 3 72 5 91 6 30 0 41 8 82 59 l48 58 2 274 3 274 31 3 c24 2 44 17 81 60
40 47 54 72 73 140 22 81 23 83 4 97 -23 17 -9 17 -254 -6z"/>
<path d="M1290 1897 c0 -22 27 -123 37 -140 2 -4 14 -1 25 8 19 13 23 12 33
-1 6 -9 31 -18 56 -21 42 -5 46 -3 92 45 26 28 47 55 47 60 0 15 -27 22 -84
22 -55 0 -165 25 -180 41 -16 15 -26 10 -26 -14z"/>
<path d="M1003 1850 c0 -25 2 -35 4 -22 2 12 2 32 0 45 -2 12 -4 2 -4 -23z"/>
<path d="M992 1737 l-2 -69 -32 3 c-62 4 -78 -1 -118 -37 -38 -34 -52 -64 -30
-64 6 0 10 -7 10 -16 0 -13 12 -15 68 -13 67 2 67 2 67 -24 -1 -15 0 -27 2
-27 1 0 12 18 23 40 18 35 20 55 17 158 -1 65 -4 87 -5 49z"/>
<path d="M480 1525 c-9 -28 -15 -90 -15 -140 0 -130 31 -189 158 -302 l47 -42
-32 -5 c-30 -5 -338 -29 -550 -43 l-88 -6 0 -493 0 -494 2955 0 2955 0 0 745
c0 687 -1 745 -17 745 -9 0 -82 -6 -162 -14 -80 -8 -209 -19 -286 -26 -77 -6
-212 -17 -300 -25 -88 -9 -299 -27 -470 -41 -170 -13 -350 -29 -400 -34 -49
-5 -146 -14 -215 -20 -69 -6 -195 -17 -280 -25 -85 -8 -234 -21 -330 -30 -96
-8 -211 -20 -255 -25 -106 -13 -507 -47 -1360 -115 -176 -14 -421 -35 -545
-45 -124 -11 -230 -20 -237 -20 -7 0 12 25 42 55 82 83 174 210 118 164 -15
-13 -15 -12 0 18 10 18 17 34 17 37 0 3 -28 -23 -63 -58 -68 -69 -111 -95
-202 -121 -110 -33 -213 -6 -316 82 -96 82 -132 147 -148 274 l-6 54 -15 -50z"/>
</g>
</svg>
